<svg width="100" height="300" viewBox="0 0 100 300" fill="none" xmlns="http://www.w3.org/2000/svg">
  <!-- Top hand (first shape) -->
  <g>
    <path d="M51.6833 63.1371C51.3012 62.5241 50.5412 62.4149 49.8694 62.6752C48.3159 63.2757 46.9387 64.2792 45.6707 65.3247C37.4201 72.1015 29.2828 79.0211 21.0448 85.8147C18.5843 87.8469 15.9097 90.5803 12.8278 86.709C10.0902 83.2702 7.07549 77.8202 10.4597 74.1421C17.5514 66.4373 24.9371 59.0055 32.2388 51.4939C33.2507 50.4526 34.3424 49.5079 35.4634 48.5632C36.0051 48.1097 35.9421 47.2406 35.3249 46.8921C34.8504 46.6233 34.3172 46.4344 34.0442 46.384C32.4403 46.1027 30.8448 47.2028 29.7951 48.1979C23.6481 54.009 17.7824 60.114 11.8369 66.135C9.76691 68.2302 7.7641 70.3926 5.48836 72.7859C5.42958 72.8447 5.32041 72.8573 5.27842 72.7859C2.30569 68.0749 -0.415122 64.0063 2.45684 59.585C7.21406 52.2581 13.0042 45.603 18.282 38.6037C18.4626 38.3644 18.6347 38.1166 18.7985 37.8605C19.7936 36.3196 18.2065 34.3839 16.5143 35.1019C16.1784 35.2447 15.8173 35.3622 15.5696 35.6226C9.20427 42.328 0.000558163 56.7886 0.0173533 47.3749C-0.436115 36.2314 8.02022 16.4762 22.7495 7.79312C43.8736 -4.66043 68.2139 -2.02781 85.1182 14.5405C98.9405 28.0858 104.185 49.8606 96.3457 64.0356C96.2785 64.1616 96.0896 64.1112 96.0812 63.9727C94.8341 44.6037 78.6982 37.5792 67.9494 26.3601C67.9032 26.3097 67.8276 26.3013 67.7688 26.3391C57.444 32.8136 55.8443 40.2832 62.2978 49.764C72.4043 64.6151 72.8157 67.487 59.7701 79.9826C50.6798 88.6866 39.8218 95.5768 29.5431 102.988C25.0043 106.258 23.0686 101.682 21.1036 98.9946C19.0756 96.2192 17.6438 93.4606 21.7502 90.3199C30.8658 83.3584 39.5278 75.8006 48.3075 68.4066L48.3201 68.3982C49.5419 67.1427 50.5244 66.0595 51.5615 64.8208C51.9562 64.3464 52.0024 63.6703 51.6749 63.1455L51.6833 63.1371Z" fill="#F15B5C">
      <animateTransform
        attributeName="transform"
        type="translate"
        values="0,0; 0,88.5"
        dur="1.6s"
        fill="freeze"
        calcMode="spline"
        keySplines="0.25 0.1 0.25 1"
        keyTimes="0;1"/>
    </path>
  </g>
  
  <!-- Bottom hand (second shape) positioned lower -->
  <g transform="translate(0,175)">
    <path d="M29.8921 109.034C29.825 108.975 29.8334 108.866 29.9048 108.812C38.7054 102.316 47.0106 97.013 54.2744 90.5427C60.8077 84.7232 66.6398 77.9464 71.9135 70.9386C75.5916 66.0513 74.8568 60.2906 71.0821 55.1597C68.8148 52.0778 66.6692 48.8951 64.6328 45.6537C61.3284 40.3926 62.0884 36.4248 67.7945 31.508C67.8491 31.4618 67.9331 31.4618 67.9877 31.5122C74.3488 37.6676 81.2558 43.5081 87.0921 50.2723C92.4749 56.5075 94.5491 66.6433 91.9207 74.0164C88.8514 82.628 84.2495 89.8919 78.9968 97.2943C72.7491 106.103 63.9232 113.149 56.5586 121.156C52.238 125.854 47.8839 126.325 43.1309 121.416C38.9993 117.146 34.4604 113.275 29.888 109.034H29.8921Z" fill="#F15B5C">
      <animateTransform
        attributeName="transform"
        type="translate"
        values="0,0; 0,-88.5"
        dur="1.6s"
        fill="freeze"
        calcMode="spline"
        keySplines="0.25 0.1 0.25 1"
        keyTimes="0;1"/>
    </path>
  </g>
</svg>